<?xml version="1.0" encoding="UTF-8" standalone="no"?>
<svg
   xmlns:dc="http://purl.org/dc/elements/1.1/"
   xmlns:cc="http://creativecommons.org/ns#"
   xmlns:rdf="http://www.w3.org/1999/02/22-rdf-syntax-ns#"
   xmlns:svg="http://www.w3.org/2000/svg"
   xmlns="http://www.w3.org/2000/svg"
   version="1.1"
   id="svg2"
   xml:space="preserve"
   width="2740"
   height="902.66669"
   viewBox="0 0 2740 902.66669"><metadata
     id="metadata8"><rdf:RDF><cc:Work
         rdf:about=""><dc:format>image/svg+xml</dc:format><dc:type
           rdf:resource="http://purl.org/dc/dcmitype/StillImage" /></cc:Work></rdf:RDF></metadata><defs
     id="defs6"><clipPath
       clipPathUnits="userSpaceOnUse"
       id="clipPath20"><path
         d="M 0,0 H 2055 V 677 H 0 Z"
         id="path18" /></clipPath><clipPath
       clipPathUnits="userSpaceOnUse"
       id="clipPath34"><path
         d="m 650.125,660.5 v -510 h 0.75 v 510 z m 152,0 v -510 h 0.75 v 510 z m 151,0 v -510 h 0.75 v 510 z m 151,0 v -510 h 0.75 v 510 z m 152,0 v -510 h 0.75 v 510 z m 151,0 v -510 h 0.75 v 510 z m 151,0 v -510 h 0.75 v 510 z m 152,0 v -510 h 0.75 v 510 z m 151,0 v -510 h 0.75 v 510 z m 151,0 v -510 h 0.75 v 510 z"
         id="path32" /></clipPath><linearGradient
       x1="10566400"
       y1="-6481762"
       x2="10566400"
       y2="0"
       gradientUnits="userSpaceOnUse"
       gradientTransform="matrix(7.874016e-5,0,0,-7.874016e-5,499.5,660.5)"
       id="linearGradient48"><stop
         style="stop-opacity:1;stop-color:#dadada"
         offset="0"
         id="stop44" /><stop
         style="stop-opacity:1;stop-color:#f2f2f2"
         offset="1"
         id="stop46" /></linearGradient><linearGradient
       x1="10566400"
       y1="0"
       x2="10566400"
       y2="6481762"
       gradientUnits="userSpaceOnUse"
       gradientTransform="matrix(7.874016e-5,0,0,-7.874016e-5,499.5,660.5)"
       id="linearGradient58"><stop
         style="stop-opacity:1;stop-color:#f2f2f2"
         offset="0"
         id="stop54" /><stop
         style="stop-opacity:1;stop-color:#dadada"
         offset="1"
         id="stop56" /></linearGradient><clipPath
       clipPathUnits="userSpaceOnUse"
       id="clipPath68"><path
         d="M 499,150 H 2013 V 661 H 499 Z"
         id="path66" /></clipPath><clipPath
       clipPathUnits="userSpaceOnUse"
       id="clipPath78"><path
         d="M 499,150 H 2013 V 661 H 499 Z"
         id="path76" /></clipPath><clipPath
       clipPathUnits="userSpaceOnUse"
       id="clipPath88"><path
         d="M 499,150 H 2013 V 661 H 499 Z"
         id="path86" /></clipPath><clipPath
       clipPathUnits="userSpaceOnUse"
       id="clipPath98"><path
         d="M 499,150 H 2013 V 661 H 499 Z"
         id="path96" /></clipPath><clipPath
       clipPathUnits="userSpaceOnUse"
       id="clipPath108"><path
         d="M 499,150 H 2013 V 661 H 499 Z"
         id="path106" /></clipPath><clipPath
       clipPathUnits="userSpaceOnUse"
       id="clipPath118"><path
         d="M 499,150 H 2013 V 661 H 499 Z"
         id="path116" /></clipPath><clipPath
       clipPathUnits="userSpaceOnUse"
       id="clipPath128"><path
         d="M 499,150 H 2013 V 661 H 499 Z"
         id="path126" /></clipPath><clipPath
       clipPathUnits="userSpaceOnUse"
       id="clipPath138"><path
         d="M 0,1 H 2055 V 677 H 0 Z"
         id="path136" /></clipPath><clipPath
       clipPathUnits="userSpaceOnUse"
       id="clipPath150"><path
         d="M 0,1 H 2055 V 677 H 0 Z"
         id="path148" /></clipPath><clipPath
       clipPathUnits="userSpaceOnUse"
       id="clipPath164"><path
         d="M 0,1 H 2055 V 677 H 0 Z"
         id="path162" /></clipPath><clipPath
       clipPathUnits="userSpaceOnUse"
       id="clipPath178"><path
         d="M 0,1 H 2055 V 677 H 0 Z"
         id="path176" /></clipPath><clipPath
       clipPathUnits="userSpaceOnUse"
       id="clipPath192"><path
         d="M 0,1 H 2055 V 677 H 0 Z"
         id="path190" /></clipPath><clipPath
       clipPathUnits="userSpaceOnUse"
       id="clipPath206"><path
         d="M 0,1 H 2055 V 677 H 0 Z"
         id="path204" /></clipPath><clipPath
       clipPathUnits="userSpaceOnUse"
       id="clipPath220"><path
         d="M 0,1 H 2055 V 677 H 0 Z"
         id="path218" /></clipPath><clipPath
       clipPathUnits="userSpaceOnUse"
       id="clipPath234"><path
         d="M 0,1 H 2055 V 677 H 0 Z"
         id="path232" /></clipPath><clipPath
       clipPathUnits="userSpaceOnUse"
       id="clipPath248"><path
         d="M 0,1 H 2055 V 677 H 0 Z"
         id="path246" /></clipPath><clipPath
       clipPathUnits="userSpaceOnUse"
       id="clipPath262"><path
         d="M 0,1 H 2055 V 677 H 0 Z"
         id="path260" /></clipPath><clipPath
       clipPathUnits="userSpaceOnUse"
       id="clipPath276"><path
         d="M 0,1 H 2055 V 677 H 0 Z"
         id="path274" /></clipPath><clipPath
       clipPathUnits="userSpaceOnUse"
       id="clipPath290"><path
         d="M 0,1 H 2055 V 677 H 0 Z"
         id="path288" /></clipPath><clipPath
       clipPathUnits="userSpaceOnUse"
       id="clipPath304"><path
         d="M 0,1 H 2055 V 677 H 0 Z"
         id="path302" /></clipPath><clipPath
       clipPathUnits="userSpaceOnUse"
       id="clipPath318"><path
         d="M 0,1 H 2055 V 677 H 0 Z"
         id="path316" /></clipPath><clipPath
       clipPathUnits="userSpaceOnUse"
       id="clipPath332"><path
         d="M 0,1 H 2055 V 677 H 0 Z"
         id="path330" /></clipPath><clipPath
       clipPathUnits="userSpaceOnUse"
       id="clipPath346"><path
         d="M 0,1 H 2055 V 677 H 0 Z"
         id="path344" /></clipPath><clipPath
       clipPathUnits="userSpaceOnUse"
       id="clipPath360"><path
         d="M 0,1 H 2055 V 677 H 0 Z"
         id="path358" /></clipPath><clipPath
       clipPathUnits="userSpaceOnUse"
       id="clipPath374"><path
         d="M 0,1 H 2055 V 677 H 0 Z"
         id="path372" /></clipPath><clipPath
       clipPathUnits="userSpaceOnUse"
       id="clipPath388"><path
         d="M 0,1 H 2055 V 677 H 0 Z"
         id="path386" /></clipPath><clipPath
       clipPathUnits="userSpaceOnUse"
       id="clipPath402"><path
         d="M 0,1 H 2055 V 677 H 0 Z"
         id="path400" /></clipPath><clipPath
       clipPathUnits="userSpaceOnUse"
       id="clipPath416"><path
         d="M 0,1 H 2055 V 677 H 0 Z"
         id="path414" /></clipPath><clipPath
       clipPathUnits="userSpaceOnUse"
       id="clipPath430"><path
         d="M 0,1 H 2055 V 677 H 0 Z"
         id="path428" /></clipPath><clipPath
       clipPathUnits="userSpaceOnUse"
       id="clipPath444"><path
         d="M 0,1 H 2055 V 677 H 0 Z"
         id="path442" /></clipPath><clipPath
       clipPathUnits="userSpaceOnUse"
       id="clipPath458"><path
         d="M 0,1 H 2055 V 677 H 0 Z"
         id="path456" /></clipPath><clipPath
       clipPathUnits="userSpaceOnUse"
       id="clipPath472"><path
         d="M 0,1 H 2055 V 677 H 0 Z"
         id="path470" /></clipPath><clipPath
       clipPathUnits="userSpaceOnUse"
       id="clipPath486"><path
         d="M 0,1 H 2055 V 677 H 0 Z"
         id="path484" /></clipPath><clipPath
       clipPathUnits="userSpaceOnUse"
       id="clipPath500"><path
         d="M 0,1 H 2055 V 677 H 0 Z"
         id="path498" /></clipPath><clipPath
       clipPathUnits="userSpaceOnUse"
       id="clipPath514"><path
         d="M 0,1 H 2055 V 677 H 0 Z"
         id="path512" /></clipPath><clipPath
       clipPathUnits="userSpaceOnUse"
       id="clipPath528"><path
         d="M 0,1 H 2055 V 677 H 0 Z"
         id="path526" /></clipPath><clipPath
       clipPathUnits="userSpaceOnUse"
       id="clipPath542"><path
         d="M 0,1 H 2055 V 677 H 0 Z"
         id="path540" /></clipPath><clipPath
       clipPathUnits="userSpaceOnUse"
       id="clipPath556"><path
         d="M 0,1 H 2055 V 677 H 0 Z"
         id="path554" /></clipPath><clipPath
       clipPathUnits="userSpaceOnUse"
       id="clipPath570"><path
         d="M 0,1 H 2055 V 677 H 0 Z"
         id="path568" /></clipPath><clipPath
       clipPathUnits="userSpaceOnUse"
       id="clipPath584"><path
         d="M 0,1 H 2055 V 677 H 0 Z"
         id="path582" /></clipPath><clipPath
       clipPathUnits="userSpaceOnUse"
       id="clipPath598"><path
         d="M 0,1 H 2055 V 677 H 0 Z"
         id="path596" /></clipPath><clipPath
       clipPathUnits="userSpaceOnUse"
       id="clipPath612"><path
         d="M 0,1 H 2055 V 677 H 0 Z"
         id="path610" /></clipPath><clipPath
       clipPathUnits="userSpaceOnUse"
       id="clipPath626"><path
         d="M 0,1 H 2055 V 677 H 0 Z"
         id="path624" /></clipPath><clipPath
       clipPathUnits="userSpaceOnUse"
       id="clipPath640"><path
         d="M 0,1 H 2055 V 677 H 0 Z"
         id="path638" /></clipPath><clipPath
       clipPathUnits="userSpaceOnUse"
       id="clipPath654"><path
         d="M 0,1 H 2055 V 677 H 0 Z"
         id="path652" /></clipPath><clipPath
       clipPathUnits="userSpaceOnUse"
       id="clipPath668"><path
         d="M 0,1 H 2055 V 677 H 0 Z"
         id="path666" /></clipPath><clipPath
       clipPathUnits="userSpaceOnUse"
       id="clipPath682"><path
         d="M 0,1 H 2055 V 677 H 0 Z"
         id="path680" /></clipPath><clipPath
       clipPathUnits="userSpaceOnUse"
       id="clipPath696"><path
         d="M 0,1 H 2055 V 677 H 0 Z"
         id="path694" /></clipPath><clipPath
       clipPathUnits="userSpaceOnUse"
       id="clipPath710"><path
         d="M 0,1 H 2055 V 677 H 0 Z"
         id="path708" /></clipPath><clipPath
       clipPathUnits="userSpaceOnUse"
       id="clipPath724"><path
         d="M 0,1 H 2055 V 677 H 0 Z"
         id="path722" /></clipPath><clipPath
       clipPathUnits="userSpaceOnUse"
       id="clipPath738"><path
         d="M 0,1 H 2055 V 677 H 0 Z"
         id="path736" /></clipPath><clipPath
       clipPathUnits="userSpaceOnUse"
       id="clipPath752"><path
         d="M 0,1 H 2055 V 677 H 0 Z"
         id="path750" /></clipPath><clipPath
       clipPathUnits="userSpaceOnUse"
       id="clipPath762"><path
         d="M 0,1 H 2055 V 677 H 0 Z"
         id="path760" /></clipPath><clipPath
       clipPathUnits="userSpaceOnUse"
       id="clipPath776"><path
         d="M 0,1 H 2055 V 677 H 0 Z"
         id="path774" /></clipPath><clipPath
       clipPathUnits="userSpaceOnUse"
       id="clipPath786"><path
         d="M 0,1 H 2055 V 677 H 0 Z"
         id="path784" /></clipPath><clipPath
       clipPathUnits="userSpaceOnUse"
       id="clipPath800"><path
         d="M 0,1 H 2055 V 677 H 0 Z"
         id="path798" /></clipPath><clipPath
       clipPathUnits="userSpaceOnUse"
       id="clipPath810"><path
         d="M 0,1 H 2055 V 677 H 0 Z"
         id="path808" /></clipPath><clipPath
       clipPathUnits="userSpaceOnUse"
       id="clipPath824"><path
         d="M 0,1 H 2055 V 677 H 0 Z"
         id="path822" /></clipPath><clipPath
       clipPathUnits="userSpaceOnUse"
       id="clipPath834"><path
         d="M 0,1 H 2055 V 677 H 0 Z"
         id="path832" /></clipPath><clipPath
       clipPathUnits="userSpaceOnUse"
       id="clipPath848"><path
         d="M 0,1 H 2055 V 677 H 0 Z"
         id="path846" /></clipPath><clipPath
       clipPathUnits="userSpaceOnUse"
       id="clipPath858"><path
         d="M 0,1 H 2055 V 677 H 0 Z"
         id="path856" /></clipPath><clipPath
       clipPathUnits="userSpaceOnUse"
       id="clipPath872"><path
         d="M 0,1 H 2055 V 677 H 0 Z"
         id="path870" /></clipPath><clipPath
       clipPathUnits="userSpaceOnUse"
       id="clipPath882"><path
         d="M 0,1 H 2055 V 677 H 0 Z"
         id="path880" /></clipPath><clipPath
       clipPathUnits="userSpaceOnUse"
       id="clipPath896"><path
         d="M 0,1 H 2055 V 677 H 0 Z"
         id="path894" /></clipPath><clipPath
       clipPathUnits="userSpaceOnUse"
       id="clipPath906"><path
         d="M 0,1 H 2055 V 677 H 0 Z"
         id="path904" /></clipPath><clipPath
       clipPathUnits="userSpaceOnUse"
       id="clipPath920"><path
         d="M 0,1 H 2055 V 677 H 0 Z"
         id="path918" /></clipPath><clipPath
       clipPathUnits="userSpaceOnUse"
       id="clipPath930"><path
         d="M 0,1 H 2055 V 677 H 0 Z"
         id="path928" /></clipPath></defs><g
     id="g10"
     transform="matrix(1.3333333,0,0,-1.3333333,0,902.66667)"><g
       id="g12" /><g
       id="g14"><g
         id="g16"
         clip-path="url(#clipPath20)"><path
           d="M 0,677 H 2055 V 0 H 0 Z"
           style="fill:#ffffff;fill-opacity:1;fill-rule:nonzero;stroke:none"
           id="path22" /></g></g><g
       id="g24"><path
         d="M 0,677 H 2055 V -9.98957e-6 H 0 Z"
         style="fill:#ffffff;fill-opacity:1;fill-rule:nonzero;stroke:none"
         id="path26" /></g><g
       id="g28"><g
         id="g30"
         clip-path="url(#clipPath34)"><g
           id="g36"><g
             id="g42"><path
               d="M 0,1 H 2055 V 677 H 0 Z"
               style="fill:url(#linearGradient48);stroke:none"
               id="path50" /></g><g
             id="g52"><path
               d="M 0,1 H 2055 V 677 H 0 Z"
               style="fill:url(#linearGradient58);stroke:none"
               id="path60" /></g></g></g></g><g
       id="g62"><g
         id="g64"
         clip-path="url(#clipPath68)"><path
           d="M 1861,156 H 499 v 40 h 1362 z m 0,51 H 499 v 40 h 1362 z m 31,102 H 499 v 40 h 1393 z m -384,51 H 499 v 40 h 1009 z m 505,51 H 499 v 40 h 1514 z m -80,51 H 499 v 40 h 1434 z m -425,51 H 499 v 40 h 1009 z m 126,51 H 499 v 40 h 1135 z m -378,52 H 499 v 39 h 757 z"
           style="fill:#517bb4;fill-opacity:1;fill-rule:nonzero;stroke:none"
           id="path70" /></g></g><g
       id="g72"><g
         id="g74"
         clip-path="url(#clipPath78)"><path
           d="m 2013,309 h -121 v 40 h 121 z m 0,51 h -505 v 40 h 505 z m 0,102 h -80 v 40 h 80 z m -379,51 h -126 v 40 h 126 z m 379,51 h -379 v 40 h 379 z m -379,52 h -378 v 39 h 378 z"
           style="fill:#5ba2df;fill-opacity:1;fill-rule:nonzero;stroke:none"
           id="path80" /></g></g><g
       id="g82"><g
         id="g84"
         clip-path="url(#clipPath88)"><path
           d="m 499,258 h 1413 v 40 H 499 Z"
           style="fill:#7fc6de;fill-opacity:1;fill-rule:nonzero;stroke:none"
           id="path90" /></g></g><g
       id="g92"><g
         id="g94"
         clip-path="url(#clipPath98)"><path
           d="m 2013,156 h -152 v 40 h 152 z m -252,357 h -127 v 40 h 127 z m 252,103 h -379 v 39 h 379 z"
           style="fill:#9bd9d5;fill-opacity:1;fill-rule:nonzero;stroke:none"
           id="path100" /></g></g><g
       id="g102"><g
         id="g104"
         clip-path="url(#clipPath108)"><path
           d="m 2013,207 h -152 v 40 h 152 z m -126,306 h -126 v 40 h 126 z"
           style="fill:#bde8c8;fill-opacity:1;fill-rule:nonzero;stroke:none"
           id="path110" /></g></g><g
       id="g112"><g
         id="g114"
         clip-path="url(#clipPath118)"><path
           d="m 1887,513 h 126 v 40 h -126 z"
           style="fill:#d8f0d5;fill-opacity:1;fill-rule:nonzero;stroke:none"
           id="path120" /></g></g><g
       id="g122"><g
         id="g124"
         clip-path="url(#clipPath128)"><path
           d="m 1912,258 h 101 v 40 h -101 z"
           style="fill:#f9fef0;fill-opacity:1;fill-rule:nonzero;stroke:none"
           id="path130" /></g></g><g
       id="g132"><g
         id="g134"
         clip-path="url(#clipPath138)"><g
           id="g140"
           transform="matrix(7.874016e-5,0,0,7.874016e-5,499.5,150.5)"><path
             d="M 0,0 1,6477000"
             style="fill:none;stroke:#bfbfbf;stroke-width:9525;stroke-linecap:butt;stroke-linejoin:round;stroke-miterlimit:10;stroke-dasharray:none;stroke-opacity:1"
             id="path142" /></g></g></g><g
       id="g144"><g
         id="g146"
         clip-path="url(#clipPath150)"><g
           id="g152"
           transform="translate(1170.915,-512)"><text
             transform="matrix(1,0,0,-1,0,677)"
             style="font-variant:normal;font-weight:normal;font-size:32px;font-family:Cambria;-inkscape-font-specification:CambriaMath;writing-mode:lr-tb;fill:#ffffff;fill-opacity:1;fill-rule:nonzero;stroke:none"
             id="text156"><tspan
               x="0"
               y="0"
               id="tspan154">9</tspan></text></g></g></g><g
       id="g158"><g
         id="g160"
         clip-path="url(#clipPath164)"><g
           id="g166"
           transform="translate(1170.915,-461)"><text
             transform="matrix(1,0,0,-1,0,677)"
             style="font-variant:normal;font-weight:normal;font-size:32px;font-family:Cambria;-inkscape-font-specification:CambriaMath;writing-mode:lr-tb;fill:#ffffff;fill-opacity:1;fill-rule:nonzero;stroke:none"
             id="text170"><tspan
               x="0"
               y="0"
               id="tspan168">9</tspan></text></g></g></g><g
       id="g172"><g
         id="g174"
         clip-path="url(#clipPath178)"><g
           id="g180"
           transform="translate(1177.05,-359)"><text
             transform="matrix(1,0,0,-1,0,677)"
             style="font-variant:normal;font-weight:normal;font-size:32px;font-family:Cambria;-inkscape-font-specification:CambriaMath;writing-mode:lr-tb;fill:#ffffff;fill-opacity:1;fill-rule:nonzero;stroke:none"
             id="text184"><tspan
               x="0 18"
               y="0"
               id="tspan182">23</tspan></text></g></g></g><g
       id="g186"><g
         id="g188"
         clip-path="url(#clipPath192)"><g
           id="g194"
           transform="translate(994.3464,-308)"><text
             transform="matrix(1,0,0,-1,0,677)"
             style="font-variant:normal;font-weight:normal;font-size:32px;font-family:Cambria;-inkscape-font-specification:CambriaMath;writing-mode:lr-tb;fill:#ffffff;fill-opacity:1;fill-rule:nonzero;stroke:none"
             id="text198"><tspan
               x="0"
               y="0"
               id="tspan196">8</tspan></text></g></g></g><g
       id="g200"><g
         id="g202"
         clip-path="url(#clipPath206)"><g
           id="g208"
           transform="translate(1237.587,-257)"><text
             transform="matrix(1,0,0,-1,0,677)"
             style="font-variant:normal;font-weight:normal;font-size:32px;font-family:Cambria;-inkscape-font-specification:CambriaMath;writing-mode:lr-tb;fill:#ffffff;fill-opacity:1;fill-rule:nonzero;stroke:none"
             id="text212"><tspan
               x="0 18"
               y="0"
               id="tspan210">10</tspan></text></g></g></g><g
       id="g214"><g
         id="g216"
         clip-path="url(#clipPath220)"><g
           id="g222"
           transform="translate(1197.76,-206)"><text
             transform="matrix(1,0,0,-1,0,677)"
             style="font-variant:normal;font-weight:normal;font-size:32px;font-family:Cambria;-inkscape-font-specification:CambriaMath;writing-mode:lr-tb;fill:#ffffff;fill-opacity:1;fill-rule:nonzero;stroke:none"
             id="text226"><tspan
               x="0 18"
               y="0"
               id="tspan224">18</tspan></text></g></g></g><g
       id="g228"><g
         id="g230"
         clip-path="url(#clipPath234)"><g
           id="g236"
           transform="translate(1057.407,-104)"><text
             transform="matrix(1,0,0,-1,0,677)"
             style="font-variant:normal;font-weight:normal;font-size:32px;font-family:Cambria;-inkscape-font-specification:CambriaMath;writing-mode:lr-tb;fill:#ffffff;fill-opacity:1;fill-rule:nonzero;stroke:none"
             id="text240"><tspan
               x="0"
               y="0"
               id="tspan238">9</tspan></text></g></g></g><g
       id="g242"><g
         id="g244"
         clip-path="url(#clipPath248)"><g
           id="g250"
           transform="translate(868.226,-53)"><text
             transform="matrix(1,0,0,-1,0,677)"
             style="font-variant:normal;font-weight:normal;font-size:32px;font-family:Cambria;-inkscape-font-specification:CambriaMath;writing-mode:lr-tb;fill:#ffffff;fill-opacity:1;fill-rule:nonzero;stroke:none"
             id="text254"><tspan
               x="0"
               y="0"
               id="tspan252">8</tspan></text></g></g></g><g
       id="g256"><g
         id="g258"
         clip-path="url(#clipPath262)"><g
           id="g264"
           transform="translate(1942.772,-359)"><text
             transform="matrix(1,0,0,-1,0,677)"
             style="font-variant:normal;font-weight:normal;font-size:32px;font-family:Cambria;-inkscape-font-specification:CambriaMath;writing-mode:lr-tb;fill:#ffffff;fill-opacity:1;fill-rule:nonzero;stroke:none"
             id="text268"><tspan
               x="0"
               y="0"
               id="tspan266">2</tspan></text></g></g></g><g
       id="g270"><g
         id="g272"
         clip-path="url(#clipPath276)"><g
           id="g278"
           transform="translate(1751.069,-308)"><text
             transform="matrix(1,0,0,-1,0,677)"
             style="font-variant:normal;font-weight:normal;font-size:32px;font-family:Cambria;-inkscape-font-specification:CambriaMath;writing-mode:lr-tb;fill:#ffffff;fill-opacity:1;fill-rule:nonzero;stroke:none"
             id="text282"><tspan
               x="0"
               y="0"
               id="tspan280">4</tspan></text></g></g></g><g
       id="g284"><g
         id="g286"
         clip-path="url(#clipPath290)"><g
           id="g292"
           transform="translate(1963.483,-206)"><text
             transform="matrix(1,0,0,-1,0,677)"
             style="font-variant:normal;font-weight:normal;font-size:32px;font-family:Cambria;-inkscape-font-specification:CambriaMath;writing-mode:lr-tb;fill:#ffffff;fill-opacity:1;fill-rule:nonzero;stroke:none"
             id="text296"><tspan
               x="0"
               y="0"
               id="tspan294">1</tspan></text></g></g></g><g
       id="g298"><g
         id="g300"
         clip-path="url(#clipPath304)"><g
           id="g306"
           transform="translate(1561.889,-155)"><text
             transform="matrix(1,0,0,-1,0,677)"
             style="font-variant:normal;font-weight:normal;font-size:32px;font-family:Cambria;-inkscape-font-specification:CambriaMath;writing-mode:lr-tb;fill:#ffffff;fill-opacity:1;fill-rule:nonzero;stroke:none"
             id="text310"><tspan
               x="0"
               y="0"
               id="tspan308">1</tspan></text></g></g></g><g
       id="g312"><g
         id="g314"
         clip-path="url(#clipPath318)"><g
           id="g320"
           transform="translate(1814.13,-104)"><text
             transform="matrix(1,0,0,-1,0,677)"
             style="font-variant:normal;font-weight:normal;font-size:32px;font-family:Cambria;-inkscape-font-specification:CambriaMath;writing-mode:lr-tb;fill:#ffffff;fill-opacity:1;fill-rule:nonzero;stroke:none"
             id="text324"><tspan
               x="0"
               y="0"
               id="tspan322">3</tspan></text></g></g></g><g
       id="g326"><g
         id="g328"
         clip-path="url(#clipPath332)"><g
           id="g334"
           transform="translate(1435.768,-53)"><text
             transform="matrix(1,0,0,-1,0,677)"
             style="font-variant:normal;font-weight:normal;font-size:32px;font-family:Cambria;-inkscape-font-specification:CambriaMath;writing-mode:lr-tb;fill:#ffffff;fill-opacity:1;fill-rule:nonzero;stroke:none"
             id="text338"><tspan
               x="0"
               y="0"
               id="tspan336">4</tspan></text></g></g></g><g
       id="g340"><g
         id="g342"
         clip-path="url(#clipPath346)"><g
           id="g348"
           transform="translate(1187.139,-410)"><text
             transform="matrix(1,0,0,-1,0,677)"
             style="font-variant:normal;font-weight:normal;font-size:32px;font-family:Cambria;-inkscape-font-specification:CambriaMath;writing-mode:lr-tb;fill:#ffffff;fill-opacity:1;fill-rule:nonzero;stroke:none"
             id="text352"><tspan
               x="0 18"
               y="0"
               id="tspan350">14</tspan></text></g></g></g><g
       id="g354"><g
         id="g356"
         clip-path="url(#clipPath360)"><g
           id="g362"
           transform="translate(1927.638,-512)"><text
             transform="matrix(1,0,0,-1,0,677)"
             style="font-variant:normal;font-weight:normal;font-size:32px;font-family:Cambria;-inkscape-font-specification:CambriaMath;writing-mode:lr-tb;fill:#0d0d0d;fill-opacity:1;fill-rule:nonzero;stroke:none"
             id="text366"><tspan
               x="0"
               y="0"
               id="tspan364">1</tspan></text></g></g></g><g
       id="g368"><g
         id="g370"
         clip-path="url(#clipPath374)"><g
           id="g376"
           transform="translate(1688.009,-155)"><text
             transform="matrix(1,0,0,-1,0,677)"
             style="font-variant:normal;font-weight:normal;font-size:32px;font-family:Cambria;-inkscape-font-specification:CambriaMath;writing-mode:lr-tb;fill:#0d0d0d;fill-opacity:1;fill-rule:nonzero;stroke:none"
             id="text380"><tspan
               x="0"
               y="0"
               id="tspan378">1</tspan></text></g></g></g><g
       id="g382"><g
         id="g384"
         clip-path="url(#clipPath388)"><g
           id="g390"
           transform="translate(1814.13,-53)"><text
             transform="matrix(1,0,0,-1,0,677)"
             style="font-variant:normal;font-weight:normal;font-size:32px;font-family:Cambria;-inkscape-font-specification:CambriaMath;writing-mode:lr-tb;fill:#0d0d0d;fill-opacity:1;fill-rule:nonzero;stroke:none"
             id="text394"><tspan
               x="0"
               y="0"
               id="tspan392">4</tspan></text></g></g></g><g
       id="g396"><g
         id="g398"
         clip-path="url(#clipPath402)"><g
           id="g404"
           transform="translate(1927.638,-461)"><text
             transform="matrix(1,0,0,-1,0,677)"
             style="font-variant:normal;font-weight:normal;font-size:32px;font-family:Cambria;-inkscape-font-specification:CambriaMath;writing-mode:lr-tb;fill:#000000;fill-opacity:1;fill-rule:nonzero;stroke:none"
             id="text408"><tspan
               x="0"
               y="0"
               id="tspan406">1</tspan></text></g></g></g><g
       id="g410"><g
         id="g412"
         clip-path="url(#clipPath416)"><g
           id="g418"
           transform="translate(1814.13,-155)"><text
             transform="matrix(1,0,0,-1,0,677)"
             style="font-variant:normal;font-weight:normal;font-size:32px;font-family:Cambria;-inkscape-font-specification:CambriaMath;writing-mode:lr-tb;fill:#000000;fill-opacity:1;fill-rule:nonzero;stroke:none"
             id="text422"><tspan
               x="0"
               y="0"
               id="tspan420">1</tspan></text></g></g></g><g
       id="g424"><g
         id="g426"
         clip-path="url(#clipPath430)"><g
           id="g432"
           transform="translate(1940.25,-155)"><text
             transform="matrix(1,0,0,-1,0,677)"
             style="font-variant:normal;font-weight:normal;font-size:32px;font-family:Cambria;-inkscape-font-specification:CambriaMath;writing-mode:lr-tb;fill:#404040;fill-opacity:1;fill-rule:nonzero;stroke:none"
             id="text436"><tspan
               x="0"
               y="0"
               id="tspan434">1</tspan></text></g></g></g><g
       id="g438"><g
         id="g440"
         clip-path="url(#clipPath444)"><g
           id="g446"
           transform="translate(1952.862,-410)"><text
             transform="matrix(1,0,0,-1,0,677)"
             style="font-variant:normal;font-weight:normal;font-size:32px;font-family:Cambria;-inkscape-font-specification:CambriaMath;writing-mode:lr-tb;fill:#404040;fill-opacity:1;fill-rule:nonzero;stroke:none"
             id="text450"><tspan
               x="0"
               y="0"
               id="tspan448">1</tspan></text></g></g></g><g
       id="g452"><g
         id="g454"
         clip-path="url(#clipPath458)"><g
           id="g460"
           transform="translate(482.227,-571)"><text
             transform="matrix(1,0,0,-1,0,677)"
             style="font-variant:normal;font-weight:normal;font-size:28px;font-family:Calibri;-inkscape-font-specification:Calibri;writing-mode:lr-tb;fill:#000000;fill-opacity:1;fill-rule:nonzero;stroke:none"
             id="text464"><tspan
               x="0 14"
               y="0"
               id="tspan462">0%</tspan></text></g></g></g><g
       id="g466"><g
         id="g468"
         clip-path="url(#clipPath472)"><g
           id="g474"
           transform="translate(626.4766,-571)"><text
             transform="matrix(1,0,0,-1,0,677)"
             style="font-variant:normal;font-weight:normal;font-size:28px;font-family:Calibri;-inkscape-font-specification:Calibri;writing-mode:lr-tb;fill:#000000;fill-opacity:1;fill-rule:nonzero;stroke:none"
             id="text478"><tspan
               x="0 14 28"
               y="0"
               id="tspan476">10%</tspan></text></g></g></g><g
       id="g480"><g
         id="g482"
         clip-path="url(#clipPath486)"><g
           id="g488"
           transform="translate(777.8212,-571)"><text
             transform="matrix(1,0,0,-1,0,677)"
             style="font-variant:normal;font-weight:normal;font-size:28px;font-family:Calibri;-inkscape-font-specification:Calibri;writing-mode:lr-tb;fill:#000000;fill-opacity:1;fill-rule:nonzero;stroke:none"
             id="text492"><tspan
               x="0 14 28"
               y="0"
               id="tspan490">20%</tspan></text></g></g></g><g
       id="g494"><g
         id="g496"
         clip-path="url(#clipPath500)"><g
           id="g502"
           transform="translate(929.1658,-571)"><text
             transform="matrix(1,0,0,-1,0,677)"
             style="font-variant:normal;font-weight:normal;font-size:28px;font-family:Calibri;-inkscape-font-specification:Calibri;writing-mode:lr-tb;fill:#000000;fill-opacity:1;fill-rule:nonzero;stroke:none"
             id="text506"><tspan
               x="0 14 28"
               y="0"
               id="tspan504">30%</tspan></text></g></g></g><g
       id="g508"><g
         id="g510"
         clip-path="url(#clipPath514)"><g
           id="g516"
           transform="translate(1080.51,-571)"><text
             transform="matrix(1,0,0,-1,0,677)"
             style="font-variant:normal;font-weight:normal;font-size:28px;font-family:Calibri;-inkscape-font-specification:Calibri;writing-mode:lr-tb;fill:#000000;fill-opacity:1;fill-rule:nonzero;stroke:none"
             id="text520"><tspan
               x="0 14 28"
               y="0"
               id="tspan518">40%</tspan></text></g></g></g><g
       id="g522"><g
         id="g524"
         clip-path="url(#clipPath528)"><g
           id="g530"
           transform="translate(1231.855,-571)"><text
             transform="matrix(1,0,0,-1,0,677)"
             style="font-variant:normal;font-weight:normal;font-size:28px;font-family:Calibri;-inkscape-font-specification:Calibri;writing-mode:lr-tb;fill:#000000;fill-opacity:1;fill-rule:nonzero;stroke:none"
             id="text534"><tspan
               x="0 14 28"
               y="0"
               id="tspan532">50%</tspan></text></g></g></g><g
       id="g536"><g
         id="g538"
         clip-path="url(#clipPath542)"><g
           id="g544"
           transform="translate(1383.2,-571)"><text
             transform="matrix(1,0,0,-1,0,677)"
             style="font-variant:normal;font-weight:normal;font-size:28px;font-family:Calibri;-inkscape-font-specification:Calibri;writing-mode:lr-tb;fill:#000000;fill-opacity:1;fill-rule:nonzero;stroke:none"
             id="text548"><tspan
               x="0 14 28"
               y="0"
               id="tspan546">60%</tspan></text></g></g></g><g
       id="g550"><g
         id="g552"
         clip-path="url(#clipPath556)"><g
           id="g558"
           transform="translate(1534.544,-571)"><text
             transform="matrix(1,0,0,-1,0,677)"
             style="font-variant:normal;font-weight:normal;font-size:28px;font-family:Calibri;-inkscape-font-specification:Calibri;writing-mode:lr-tb;fill:#000000;fill-opacity:1;fill-rule:nonzero;stroke:none"
             id="text562"><tspan
               x="0 14 28"
               y="0"
               id="tspan560">70%</tspan></text></g></g></g><g
       id="g564"><g
         id="g566"
         clip-path="url(#clipPath570)"><g
           id="g572"
           transform="translate(1685.889,-571)"><text
             transform="matrix(1,0,0,-1,0,677)"
             style="font-variant:normal;font-weight:normal;font-size:28px;font-family:Calibri;-inkscape-font-specification:Calibri;writing-mode:lr-tb;fill:#000000;fill-opacity:1;fill-rule:nonzero;stroke:none"
             id="text576"><tspan
               x="0 14 28"
               y="0"
               id="tspan574">80%</tspan></text></g></g></g><g
       id="g578"><g
         id="g580"
         clip-path="url(#clipPath584)"><g
           id="g586"
           transform="translate(1837.233,-571)"><text
             transform="matrix(1,0,0,-1,0,677)"
             style="font-variant:normal;font-weight:normal;font-size:28px;font-family:Calibri;-inkscape-font-specification:Calibri;writing-mode:lr-tb;fill:#000000;fill-opacity:1;fill-rule:nonzero;stroke:none"
             id="text590"><tspan
               x="0 14 28"
               y="0"
               id="tspan588">90%</tspan></text></g></g></g><g
       id="g592"><g
         id="g594"
         clip-path="url(#clipPath598)"><g
           id="g600"
           transform="translate(1981.483,-571)"><text
             transform="matrix(1,0,0,-1,0,677)"
             style="font-variant:normal;font-weight:normal;font-size:28px;font-family:Calibri;-inkscape-font-specification:Calibri;writing-mode:lr-tb;fill:#000000;fill-opacity:1;fill-rule:nonzero;stroke:none"
             id="text604"><tspan
               x="0 14 28 43.007999"
               y="0"
               id="tspan602">100%</tspan></text></g></g></g><g
       id="g606"><g
         id="g608"
         clip-path="url(#clipPath612)"><g
           id="g614"
           transform="translate(114.8109,-511)"><text
             transform="matrix(1,0,0,-1,0,677)"
             style="font-variant:normal;font-weight:normal;font-size:36px;font-family:Cambria;-inkscape-font-specification:CambriaMath;writing-mode:lr-tb;fill:#000000;fill-opacity:1;fill-rule:nonzero;stroke:none"
             id="text618"><tspan
               x="0 23.000401 43.012798 59.029202 69.0336 87.029999 104.0184 119.0268 127.0152 147.9996 168.01199 186.00841 196.0128 211.02119 230.0256 250.03799 280.0224 298.0188 318.03119 330.01559 347.004"
               y="0"
               id="tspan616">Unclear	Environmental</tspan></text></g></g></g><g
       id="g620"><g
         id="g622"
         clip-path="url(#clipPath626)"><g
           id="g628"
           transform="translate(4.475984,-460)"><text
             transform="matrix(1,0,0,-1,0,677)"
             style="font-variant:normal;font-weight:normal;font-size:36px;font-family:Cambria;-inkscape-font-specification:CambriaMath;writing-mode:lr-tb;fill:#000000;fill-opacity:1;fill-rule:nonzero;stroke:none"
             id="text632"><tspan
               x="0 11.9988 31.989599 47.984402 66.967201 81.954002 96.940804 113.9436 129.9384 141.93719 149.94 173.9268 190.9296 210.92039 228.9312 248.922 268.91281 286.92361 306.9144 322.90921 340.92001 348.92279 369.9216 387.9324 402.91919 417.90601 427.88879 446.87161"
               y="0"
               id="tspan630">Incorrect	Dependency	Version</tspan></text></g></g></g><g
       id="g634"><g
         id="g636"
         clip-path="url(#clipPath640)"><g
           id="g642"
           transform="translate(137.576,-409)"><text
             transform="matrix(1,0,0,-1,0,677)"
             style="font-variant:normal;font-weight:normal;font-size:36px;font-family:Cambria;-inkscape-font-specification:CambriaMath;writing-mode:lr-tb;fill:#000000;fill-opacity:1;fill-rule:nonzero;stroke:none"
             id="text646"><tspan
               x="0 11.9988 31.989599 47.984402 66.967201 81.954002 96.940804 113.9436 129.9384 141.93719 149.94 169.9308 187.9416 207.9324 216.94321 235.92599 254.94479 284.9436 301.94641 321.93719"
               y="0"
               id="tspan644">Incorrect	deployment</tspan></text></g></g></g><g
       id="g648"><g
         id="g650"
         clip-path="url(#clipPath654)"><g
           id="g656"
           transform="translate(133.0961,-358)"><text
             transform="matrix(1,0,0,-1,0,677)"
             style="font-variant:normal;font-weight:normal;font-size:36px;font-family:Cambria;-inkscape-font-specification:CambriaMath;writing-mode:lr-tb;fill:#000000;fill-opacity:1;fill-rule:nonzero;stroke:none"
             id="text660"><tspan
               x="0 20.9988 39.009602 60.0084 77.0112 84.005997 92.008797 110.0196 130.01041 148.02119 168.01199 185.0148 193.01759 218.01241 226.0152 245.034 264.01682 279.0036 309.00241 327.01321"
               y="0"
               id="tspan658">Type,	Shape	&amp;	Format</tspan></text></g></g></g><g
       id="g662"><g
         id="g664"
         clip-path="url(#clipPath668)"><g
           id="g670"
           transform="translate(301.1861,-307)"><text
             transform="matrix(1,0,0,-1,0,677)"
             style="font-variant:normal;font-weight:normal;font-size:36px;font-family:Cambria;-inkscape-font-specification:CambriaMath;writing-mode:lr-tb;fill:#000000;fill-opacity:1;fill-rule:nonzero;stroke:none"
             id="text674"><tspan
               x="0 21.999599 42.991199 54.9828 61.970402 91.961998 101.9736 117.9612 137.9808 152.9964"
               y="0"
               id="tspan672">API	misuse</tspan></text></g></g></g><g
       id="g676"><g
         id="g678"
         clip-path="url(#clipPath682)"><g
           id="g684"
           transform="translate(260.541,-256)"><text
             transform="matrix(1,0,0,-1,0,677)"
             style="font-variant:normal;font-weight:normal;font-size:36px;font-family:Cambria;-inkscape-font-specification:CambriaMath;writing-mode:lr-tb;fill:#000000;fill-opacity:1;fill-rule:nonzero;stroke:none"
             id="text688"><tspan
               x="0 21.999599 42.991199 54.9828 61.970402 82.961998 100.9656 119.9772 129.9888 150.00841 162 172.0116 191.02319"
               y="0"
               id="tspan686">API	Evolution</tspan></text></g></g></g><g
       id="g690"><g
         id="g692"
         clip-path="url(#clipPath696)"><g
           id="g698"
           transform="translate(138.171,-205)"><text
             transform="matrix(1,0,0,-1,0,677)"
             style="font-variant:normal;font-weight:normal;font-size:36px;font-family:Cambria;-inkscape-font-specification:CambriaMath;writing-mode:lr-tb;fill:#000000;fill-opacity:1;fill-rule:nonzero;stroke:none"
             id="text702"><tspan
               x="0 19.000799 34.0056 51.998402 82.015198 99 127.0008 146.0016 161.00639 180.0072 187.992 205.9848 223.9776 242.97839 252.9792 271.98001 284.96881 294.9696 313.9704"
               y="0"
               id="tspan700">Framework	evolution</tspan></text></g></g></g><g
       id="g704"><g
         id="g706"
         clip-path="url(#clipPath710)"><g
           id="g712"
           transform="translate(150.6261,-154)"><text
             transform="matrix(1,0,0,-1,0,677)"
             style="font-variant:normal;font-weight:normal;font-size:36px;font-family:Cambria;-inkscape-font-specification:CambriaMath;writing-mode:lr-tb;fill:#000000;fill-opacity:1;fill-rule:nonzero;stroke:none"
             id="text716"><tspan
               x="0 33.001202 51.998402 66.999603 85.996803 103.986 117.9792 125.9964 135.99361 157.00681 167.004 179.0172 189.0144 205.99561 215.9928 225.99001 241.99921 259.9884 272.00159 281.99881 300.996"
               y="0"
               id="tspan714">Worker	initialization</tspan></text></g></g></g><g
       id="g718"><g
         id="g720"
         clip-path="url(#clipPath724)"><g
           id="g726"
           transform="translate(269.4361,-103)"><text
             transform="matrix(1,0,0,-1,0,677)"
             style="font-variant:normal;font-weight:normal;font-size:36px;font-family:Cambria;-inkscape-font-specification:CambriaMath;writing-mode:lr-tb;fill:#000000;fill-opacity:1;fill-rule:nonzero;stroke:none"
             id="text730"><tspan
               x="0 19.000799 39.009602 46.9944 68.9832 78.984001 96.976799 115.9776 130.98241 140.9832 152.964 172.97279"
               y="0"
               id="tspan728">FL	Algorithm</tspan></text></g></g></g><g
       id="g732"><g
         id="g734"
         clip-path="url(#clipPath738)"><g
           id="g740"
           transform="translate(176.0211,-52)"><text
             transform="matrix(1,0,0,-1,0,677)"
             style="font-variant:normal;font-weight:normal;font-size:36px;font-family:Cambria;-inkscape-font-specification:CambriaMath;writing-mode:lr-tb;fill:#000000;fill-opacity:1;fill-rule:nonzero;stroke:none"
             id="text744"><tspan
               x="0 33.001202 51.998402 66.999603 85.996803 103.986 117.9792 125.9964 135.99361 157.00681 169.02 186.00121 201.0024 218.99159 235.00079 247.01401 257.0112 276.00839"
               y="0"
               id="tspan742">Worker	interaction</tspan></text></g></g></g><g
       id="g746"><g
         id="g748"
         clip-path="url(#clipPath752)"><path
           d="m 170,79 h 17 V 63 h -17 z"
           style="fill:#517bb4;fill-opacity:1;fill-rule:nonzero;stroke:none"
           id="path754" /></g></g><g
       id="g756"><g
         id="g758"
         clip-path="url(#clipPath762)"><g
           id="g764"
           transform="translate(194.3108,-616)"><text
             transform="matrix(1,0,0,-1,0,677)"
             style="font-variant:normal;font-weight:normal;font-size:36px;font-family:Cambria;-inkscape-font-specification:CambriaMath;writing-mode:lr-tb;fill:#000000;fill-opacity:1;fill-rule:nonzero;stroke:none"
             id="text768"><tspan
               x="0 15.9984 30.9888 47.995201 63.993599"
               y="0"
               id="tspan766">crash</tspan></text></g></g></g><g
       id="g770"><g
         id="g772"
         clip-path="url(#clipPath776)"><path
           d="m 645,79 h 16 V 63 h -16 z"
           style="fill:#5ba2df;fill-opacity:1;fill-rule:nonzero;stroke:none"
           id="path778" /></g></g><g
       id="g780"><g
         id="g782"
         clip-path="url(#clipPath786)"><g
           id="g788"
           transform="translate(669.203,-616)"><text
             transform="matrix(1,0,0,-1,0,677)"
             style="font-variant:normal;font-weight:normal;font-size:36px;font-family:Cambria;-inkscape-font-specification:CambriaMath;writing-mode:lr-tb;fill:#000000;fill-opacity:1;fill-rule:nonzero;stroke:none"
             id="text792"><tspan
               x="0 11.9988 31.989599 47.984402 66.967201 81.954002 96.940804 113.9436 129.9384 141.93719 149.94 168.92281 188.9136 208.9044 224.8992 236.89799 246.8808 266.87161 286.8624 303.8652 313.84799 323.83081 335.82959"
               y="0"
               id="tspan790">Incorrect	Functionality</tspan></text></g></g></g><g
       id="g794"><g
         id="g796"
         clip-path="url(#clipPath800)"><path
           d="m 1120,79 h 16 V 63 h -16 z"
           style="fill:#7fc6de;fill-opacity:1;fill-rule:nonzero;stroke:none"
           id="path802" /></g></g><g
       id="g804"><g
         id="g806"
         clip-path="url(#clipPath810)"><g
           id="g812"
           transform="translate(1144.095,-616)"><text
             transform="matrix(1,0,0,-1,0,677)"
             style="font-variant:normal;font-weight:normal;font-size:36px;font-family:Cambria;-inkscape-font-specification:CambriaMath;writing-mode:lr-tb;fill:#000000;fill-opacity:1;fill-rule:nonzero;stroke:none"
             id="text816"><tspan
               x="0 24.0012 40.982399 60.987598 70.984802 89.982002 107.9712 137.98441 155.9736 175.97881 187.992 195.97321 214.9704 232.95959 242.9568 252.95399 272.9592 287.96039"
               y="0"
               id="tspan814">Deployment	Failure</tspan></text></g></g></g><g
       id="g818"><g
         id="g820"
         clip-path="url(#clipPath824)"><path
           d="m 1595,79 h 16 V 63 h -16 z"
           style="fill:#9bd9d5;fill-opacity:1;fill-rule:nonzero;stroke:none"
           id="path826" /></g></g><g
       id="g828"><g
         id="g830"
         clip-path="url(#clipPath834)"><g
           id="g836"
           transform="translate(1618.987,-616)"><text
             transform="matrix(1,0,0,-1,0,677)"
             style="font-variant:normal;font-weight:normal;font-size:36px;font-family:Cambria;-inkscape-font-specification:CambriaMath;writing-mode:lr-tb;fill:#000000;fill-opacity:1;fill-rule:nonzero;stroke:none"
             id="text840"><tspan
               x="0 20.0016 38.995201 58.996799 80.006401 97.019997 113.0256 125.0352 135.02879 154.0224 174.024 182.0376 205.02721 222.0408 233.0424 253.04401 268.0416 286.02719"
               y="0"
               id="tspan838">Connection	Refused</tspan></text></g></g></g><g
       id="g842"><g
         id="g844"
         clip-path="url(#clipPath848)"><path
           d="m 170,36 h 17 V 20 h -17 z"
           style="fill:#bde8c8;fill-opacity:1;fill-rule:nonzero;stroke:none"
           id="path850" /></g></g><g
       id="g852"><g
         id="g854"
         clip-path="url(#clipPath858)"><g
           id="g860"
           transform="translate(194.3108,-658)"><text
             transform="matrix(1,0,0,-1,0,677)"
             style="font-variant:normal;font-weight:normal;font-size:36px;font-family:Cambria;-inkscape-font-specification:CambriaMath;writing-mode:lr-tb;fill:#000000;fill-opacity:1;fill-rule:nonzero;stroke:none"
             id="text864"><tspan
               x="0 20.0016 40.003201 58.996799 73.9944 81 102.0096 119.0232 134.0208 145.0224 164.01601 179.0136 209.02319 227.0088 247.01041 263.01599"
               y="0"
               id="tspan862">Poor	Performance</tspan></text></g></g></g><g
       id="g866"><g
         id="g868"
         clip-path="url(#clipPath872)"><path
           d="m 645,36 h 16 V 20 h -16 z"
           style="fill:#d8f0d5;fill-opacity:1;fill-rule:nonzero;stroke:none"
           id="path874" /></g></g><g
       id="g876"><g
         id="g878"
         clip-path="url(#clipPath882)"><g
           id="g884"
           transform="translate(669.203,-658)"><text
             transform="matrix(1,0,0,-1,0,677)"
             style="font-variant:normal;font-weight:normal;font-size:36px;font-family:Cambria;-inkscape-font-specification:CambriaMath;writing-mode:lr-tb;fill:#000000;fill-opacity:1;fill-rule:nonzero;stroke:none"
             id="text888"><tspan
               x="0 18 34.992001 50.976002 70.991997 86.003998 96.012001 108 126 133.992 156.996 167.004 182.01601"
               y="0"
               id="tspan886">Security	Risk</tspan></text></g></g></g><g
       id="g890"><g
         id="g892"
         clip-path="url(#clipPath896)"><path
           d="m 1120,36 h 16 V 20 h -16 z"
           style="fill:#e9f7e4;fill-opacity:1;fill-rule:nonzero;stroke:none"
           id="path898" /></g></g><g
       id="g900"><g
         id="g902"
         clip-path="url(#clipPath906)"><g
           id="g908"
           transform="translate(1144.095,-658)"><text
             transform="matrix(1,0,0,-1,0,677)"
             style="font-variant:normal;font-weight:normal;font-size:36px;font-family:Cambria;-inkscape-font-specification:CambriaMath;writing-mode:lr-tb;fill:#000000;fill-opacity:1;fill-rule:nonzero;stroke:none"
             id="text912"><tspan
               x="0 19.000799 38.001598 66.002403 73.987198 95.003998 106.0128 117.0216 127.0224 143.0352 153.036 170.0208 190.0296 206.0424"
               y="0"
               id="tspan910">Low	Efficiency</tspan></text></g></g></g><g
       id="g914"><g
         id="g916"
         clip-path="url(#clipPath920)"><path
           d="m 1595,36 h 16 V 20 h -16 z"
           style="fill:#f9fef0;fill-opacity:1;fill-rule:nonzero;stroke:none"
           id="path922" /></g></g><g
       id="g924"><g
         id="g926"
         clip-path="url(#clipPath930)"><g
           id="g932"
           transform="translate(1618.987,-658)"><text
             transform="matrix(1,0,0,-1,0,677)"
             style="font-variant:normal;font-weight:normal;font-size:36px;font-family:Cambria;-inkscape-font-specification:CambriaMath;writing-mode:lr-tb;fill:#000000;fill-opacity:1;fill-rule:nonzero;stroke:none"
             id="text936"><tspan
               x="0 24.9984 42.004799 61.999199"
               y="0"
               id="tspan934">Hang</tspan></text></g></g></g></g></svg>
